<svg width="636" height="300" viewBox="0 0 636 300" fill="none" xmlns="http://www.w3.org/2000/svg">
<path d="M144.295 157.626L131.905 84.8689L132.924 84.6956L144.151 150.616L152.358 86.5822L153.384 86.7115L144.295 157.626Z" fill="#E3DBFF"/>
<path d="M133.33 90.8118L136.834 94.192L131.627 95.3312L133.33 90.8118Z" fill="#FF5311"/>
<path d="M108.751 66.8768C111.181 77.9818 127.556 93.676 134.057 92.2536C140.33 90.8804 148.879 69.7306 146.45 58.6333C144.02 47.536 133.611 40.3736 123.2 42.652C112.789 44.9305 106.321 55.7717 108.751 66.8768Z" fill="url(#paint0_linear_2596_5466)"/>
<path d="M151.302 100.246L153.221 104.719L147.98 103.752L151.302 100.246Z" fill="#D600AA"/>
<path d="M137.923 68.6535C135.854 79.831 144.868 100.647 151.411 101.856C157.727 103.02 173.806 86.8421 175.871 75.6633C177.937 64.4846 171.115 53.8489 160.636 51.9093C150.157 49.9696 139.988 57.4696 137.923 68.6535Z" fill="#D600AA"/>
<path d="M143.319 83.3133L142.904 153.287H143.939L144.354 83.3119L143.319 83.3133Z" fill="#E3DBFF"/>
<path d="M143.821 83.219L146.521 87.2702H141.192L143.821 83.219Z" fill="url(#paint1_linear_2596_5466)"/>
<path d="M124.922 54.5821C124.922 65.9496 137.564 84.7821 144.218 84.7821C150.639 84.7821 163.513 65.9496 163.513 54.5821C163.513 43.2145 154.874 34 144.218 34C133.561 34 124.922 43.2145 124.922 54.5821Z" fill="url(#paint2_linear_2596_5466)"/>
<path d="M356.24 92.06L218.77 154.5L323.99 203.29L496.2 135.3L356.24 92.06ZM223.21 154.51L356.36 94.03L490.62 135.5L324.04 201.27L223.21 154.51Z" fill="#B3AFAB"/>
<path d="M484.45 137.09L484.31 135.24L342.06 145.83L357.44 96.94L355.67 96.38L340.07 145.98L230.99 154.09L231.13 155.94L339.47 147.88L323.91 197.35L325.68 197.9L341.46 147.73L484.45 137.09Z" fill="#B3AFAB"/>
<path d="M307.45 184.47C305.43 185.13 303.43 185.92 301.46 186.87C298.78 188.16 296.29 189.66 293.99 191.32L298.13 200.21C295.84 202.13 293.84 204.28 292.17 206.6L281.22 205.51C278.75 209.86 277.09 214.55 276.31 219.38L286.02 223.44C285.81 226.66 286.11 229.91 286.94 233.11C284.57 234.66 280.59 237.17 278.05 238.75C278.7 240.58 279.48 242.38 280.43 244.15C281.73 246.59 283.26 248.84 284.98 250.92L294.9 247.05C297.06 249.26 299.52 251.15 302.2 252.68L300.45 262.66C305.13 264.79 310.2 266.14 315.43 266.65L320.53 257.45C323.47 257.45 326.44 257.11 329.38 256.41L335.26 264.53C337.39 263.85 339.49 263.02 341.56 262.03C344.38 260.68 346.99 259.1 349.38 257.33L345.12 248.49C347.47 246.49 349.51 244.24 351.2 241.81L361.73 243.51C364.35 238.93 366.08 233.96 366.82 228.86C363.75 227.8 359.43 226.3 357.01 225.4C357.19 222.47 356.96 219.51 356.28 216.59L365.32 211.18C364.61 209 363.71 206.85 362.59 204.75C361.21 202.16 359.57 199.77 357.73 197.59L348.21 201.95C345.94 199.61 343.34 197.63 340.5 196.05L342.82 186.36C338.31 184.28 333.43 182.92 328.38 182.34L324.12 191.48C320.55 191.33 316.92 191.68 313.34 192.56L307.45 184.47ZM339.61 215.78C344.49 224.93 340.34 236.23 330.34 241.03C320.34 245.82 308.28 242.29 303.4 233.15C298.52 224 302.67 212.7 312.67 207.9C322.67 203.1 334.73 206.63 339.61 215.78Z" fill="#A7A4A0"/>
<path d="M381.87 171.49L370.4 182.96L361.74 174.3L373.17 162.87C371.15 162 368.93 161.52 366.59 161.52C357.37 161.52 349.89 169 349.89 178.22C349.89 180.52 350.36 182.72 351.2 184.72C343.51 191.29 320.21 211.27 313.67 217.81C305.8 225.68 318.7 240.55 328.54 230.27C336.25 222.21 353.37 202.07 360.41 193.74C362.32 194.5 364.41 194.93 366.59 194.93C375.81 194.93 383.29 187.45 383.29 178.23C383.29 175.82 382.78 173.55 381.87 171.49ZM321.1 228.87C318.37 228.87 316.15 226.65 316.15 223.92C316.15 221.19 318.37 218.97 321.1 218.97C323.83 218.97 326.05 221.19 326.05 223.92C326.05 226.65 323.83 228.87 321.1 228.87Z" fill="#F7B548"/>
<path d="M464.88 182.12C466.9 166.16 461.26 151.61 453.66 132.75C446.06 113.89 455.78 76.96 498.49 85.14C540.76 93.23 540.44 131.6 520.6 152.3C504.99 168.59 499.36 173.33 496.41 190.1C493.46 206.87 462.29 202.55 464.88 182.12Z" fill="#F7B548"/>
<path d="M520.79 123.49C520.42 122.98 519.69 122.83 519.15 123.16C517.2 124.35 511.28 125.69 503.59 125.64L505.61 118.67C505.78 118.09 505.41 117.47 504.78 117.3C504.15 117.12 503.51 117.46 503.34 118.04L501.16 125.59C494.98 125.32 487.88 124.12 480.86 121.3L481.32 114.48C481.36 113.87 480.87 113.33 480.22 113.28C479.57 113.22 479.01 113.67 478.97 114.28L478.56 120.32C474.79 118.61 471.07 116.41 467.55 113.59C467.05 113.19 466.31 113.23 465.89 113.69C465.48 114.15 465.55 114.85 466.05 115.25C469.99 118.4 474.17 120.83 478.4 122.69L473.96 187.82C473.93 188.3 474.23 188.75 474.71 188.94C474.76 188.96 474.81 188.98 474.86 188.99L483.45 191.19C484.07 191.35 484.7 191.02 484.87 190.44L502.96 127.89C511.42 128.02 518.07 126.51 520.5 125.02C521.02 124.68 521.16 124 520.79 123.49ZM482.88 188.76L476.37 187.09L480.69 123.62C487.53 126.27 494.4 127.47 500.51 127.79L482.88 188.76Z" fill="white"/>
<path d="M464.29 201.57L466.37 209.44L484.09 214.06L489.85 208.68L464.29 201.57Z" fill="#3E8EED"/>
<path d="M496.41 190.1L464.88 182.12L459.92 203.67L492.91 211.94L496.41 190.1Z" fill="#3E8EED"/>
<path d="M494.03 204.95L494.27 203.5L461.83 195.36L461.5 196.79L494.03 204.95Z" fill="#0064DA"/>
<path d="M463.38 188.63L495.4 196.41L495.63 194.95L463.71 187.2L463.38 188.63Z" fill="#0064DA"/>
<path d="M405 126.04L310.57 125.52C307.98 125.51 305.82 123.73 305.75 121.56L303.73 61.24C303.66 59.07 305.7 57.32 308.29 57.33L402.72 57.85C405.31 57.86 407.47 59.64 407.54 61.81L409.56 122.13C409.63 124.3 407.59 126.05 405 126.04Z" fill="#957EE6"/>
<path d="M407.83 70.74L407.53 61.81C407.46 59.64 405.3 57.87 402.71 57.85L308.28 57.33C305.69 57.32 303.65 59.06 303.72 61.24L304.02 70.17L407.83 70.74Z" fill="#522CD5"/>
<path d="M319.846 64.5447C319.99 63.0494 318.654 61.6969 316.862 61.5239C315.07 61.3509 313.5 62.4228 313.356 63.9181C313.212 65.4134 314.547 66.7658 316.34 66.9389C318.132 67.1119 319.702 66.04 319.846 64.5447Z" fill="#957EE6"/>
<path d="M330.84 64.5988C330.985 63.1035 329.649 61.7511 327.857 61.578C326.064 61.405 324.495 62.4769 324.35 63.9723C324.206 65.4676 325.542 66.82 327.334 66.993C329.126 67.166 330.696 66.0941 330.84 64.5988Z" fill="#957EE6"/>
<path d="M341.834 64.6629C341.978 63.1675 340.642 61.8151 338.85 61.6421C337.058 61.4691 335.488 62.541 335.344 64.0363C335.199 65.5316 336.535 66.884 338.327 67.057C340.119 67.23 341.689 66.1582 341.834 64.6629Z" fill="#957EE6"/>
<path d="M347.7 106.47L329.05 98.28V96.38L347.7 87.08V89.97L332.52 97.17L347.7 103.54V106.47Z" fill="#E5F0FC"/>
<path d="M363.94 82.8L353.36 111.17H350.14L360.72 82.8H363.94Z" fill="#E5F0FC"/>
<path d="M366.37 103.54L381.57 97.21L366.37 89.97V87.08L385.02 96.38V98.28L366.37 106.47V103.54Z" fill="#E5F0FC"/>
<path d="M227.39 130.65H211.17V191.04H227.39V130.65Z" fill="#1DACCC"/>
<path d="M237.16 117.7H227.39V191.04H237.16V117.7Z" fill="#0064DA"/>
<path d="M242.654 131.013L237.091 132.002L247.585 191.003L253.147 190.014L242.654 131.013Z" fill="#76AFF2"/>
<path d="M202.96 109.51L160.28 133.16L173.98 181.1C172.53 180.38 171.05 181.31 169.37 181.79C167.73 182.25 165.9 180.94 165.05 182.27L151.74 135.58L103 137.78L118.97 194.03L165.05 189.61C167.19 191.56 169.21 191.85 172 191.06C174.78 190.27 176.42 188.82 177.16 186.21L218.86 165.95L202.96 109.51Z" fill="#0064DA"/>
<path d="M194.65 106.47C194.65 106.47 163.3 121.7 159.42 124.26C155.54 126.82 154.61 130.19 156.28 135.64C157.95 141.09 169.45 182.21 169.45 182.21L210.92 161.25L194.65 106.47Z" fill="#F7B548"/>
<path d="M108.81 130.75C108.81 130.75 143.17 127.41 147.82 127.55C152.47 127.7 155.02 130.08 156.45 135.6C157.88 141.12 169.46 182.22 169.46 182.22L123.34 186.15L108.81 130.75Z" fill="#FCCF84"/>
<path d="M148.35 138.31C148.3 138.32 148.24 138.34 148.19 138.34L120.2 140.7C119.73 140.74 119.32 140.39 119.28 139.92C119.24 139.45 119.61 139.03 120.06 139L148.05 136.64C148.52 136.6 148.93 136.95 148.97 137.42C149 137.83 148.73 138.2 148.35 138.31Z" fill="#B3AFAB"/>
<path d="M150.54 146.05C150.49 146.06 150.43 146.08 150.38 146.08L122.39 148.44C121.92 148.48 121.51 148.13 121.47 147.66C121.43 147.19 121.8 146.78 122.25 146.74L150.24 144.38C150.71 144.34 151.12 144.69 151.16 145.16C151.19 145.57 150.92 145.94 150.54 146.05Z" fill="#B3AFAB"/>
<path d="M152.72 153.78C152.67 153.79 152.61 153.81 152.56 153.81L124.57 156.17C124.1 156.21 123.69 155.86 123.65 155.39C123.61 154.92 123.97 154.5 124.43 154.47L152.42 152.11C152.89 152.07 153.3 152.42 153.34 152.89C153.37 153.3 153.11 153.67 152.72 153.78Z" fill="#B3AFAB"/>
<path d="M154.91 161.52C154.86 161.53 154.8 161.55 154.75 161.55L126.76 163.91C126.29 163.95 125.88 163.6 125.84 163.13C125.8 162.66 126.16 162.24 126.62 162.21L154.61 159.85C155.08 159.81 155.49 160.16 155.53 160.63C155.56 161.04 155.29 161.41 154.91 161.52Z" fill="#B3AFAB"/>
<path d="M164.47 133.75C164.52 133.74 164.57 133.72 164.62 133.69L189.7 121.04C190.12 120.83 190.29 120.32 190.08 119.9C189.87 119.48 189.34 119.32 188.94 119.52L163.86 132.17C163.44 132.38 163.27 132.89 163.48 133.31C163.67 133.69 164.09 133.86 164.47 133.75Z" fill="#B3AFAB"/>
<path d="M166.66 141.49C166.71 141.48 166.76 141.46 166.81 141.43L191.89 128.78C192.31 128.57 192.48 128.06 192.27 127.64C192.06 127.22 191.53 127.06 191.13 127.26L166.05 139.91C165.63 140.12 165.46 140.63 165.67 141.05C165.85 141.42 166.27 141.6 166.66 141.49Z" fill="#B3AFAB"/>
<path d="M168.84 149.22C168.89 149.21 168.94 149.19 168.99 149.16L194.07 136.51C194.49 136.3 194.66 135.79 194.45 135.37C194.24 134.95 193.71 134.78 193.31 134.99L168.23 147.64C167.81 147.85 167.64 148.36 167.85 148.78C168.04 149.16 168.46 149.33 168.84 149.22Z" fill="#B3AFAB"/>
<path d="M171.03 156.96C171.08 156.95 171.13 156.93 171.18 156.9L196.26 144.25C196.68 144.04 196.85 143.53 196.64 143.11C196.43 142.69 195.9 142.52 195.5 142.73L170.42 155.38C170 155.59 169.83 156.1 170.04 156.52C170.23 156.89 170.65 157.07 171.03 156.96Z" fill="#B3AFAB"/>
<path d="M166.7 184.13C167.51 183.26 168.55 182.58 169.78 182.24C170.92 181.92 172.06 181.93 173.13 182.18L212.82 163.75L198.51 111.68L194.54 106.51L209.56 160.53C209.56 160.53 177.06 175.84 174.19 177.41C171.33 178.98 169.52 182.14 169.52 182.14C169.52 182.14 167.74 180.43 163.62 180.53C159.5 180.63 124.03 184.45 124.03 184.45L108.97 130.83L108.3 137.62L122.9 188.74L166.7 184.13Z" fill="#8DBCF4"/>
<defs>
<linearGradient id="paint0_linear_2596_5466" x1="257.778" y1="97.3169" x2="402.062" y2="294.628" gradientUnits="userSpaceOnUse">
<stop stop-color="#FF7951"/>
<stop offset="1" stop-color="#FF2078"/>
</linearGradient>
<linearGradient id="paint1_linear_2596_5466" x1="192.693" y1="-193.823" x2="527.7" y2="182.603" gradientUnits="userSpaceOnUse">
<stop stop-color="#D600AA"/>
<stop offset="1" stop-color="#512BD4"/>
</linearGradient>
<linearGradient id="paint2_linear_2596_5466" x1="192.693" y1="-193.823" x2="527.7" y2="182.603" gradientUnits="userSpaceOnUse">
<stop stop-color="#D600AA"/>
<stop offset="1" stop-color="#512BD4"/>
</linearGradient>
</defs>
</svg>
