<svg width="466" height="300" xmlns="http://www.w3.org/2000/svg" fill="none">

   <path stroke="null" d="m441.95847,297.20993l-405.79609,-2.23461c-11.13006,-0.04297 -20.41228,-7.69221 -20.71309,-17.01739l-8.68059,-259.21445c-0.30081,-9.32519 8.46572,-16.8455 19.59579,-16.80253l405.79609,2.23461c11.13006,0.04297 20.41228,7.69221 20.71309,17.01739l8.68059,259.21445c0.30081,9.32519 -8.46572,16.8455 -19.59579,16.80253z" fill="#957EE6" id="svg_1"/>
   <path stroke="null" d="m454.11989,59.56804l-1.2892,-38.37508c-0.30081,-9.32519 -9.58303,-16.93145 -20.71309,-17.01739l-405.79609,-2.23461c-11.13006,-0.04297 -19.8966,7.43437 -19.59579,16.80253l1.2892,38.37508l446.10497,2.44947z" fill="#522CD5" id="svg_2"/>
   <path stroke="null" d="m76.02434,32.94484c0.61881,-6.42579 -5.12241,-12.23791 -12.82321,-12.98135c-7.7008,-0.74344 -14.4476,3.86286 -15.06641,10.28865c-0.61881,6.42579 5.11811,12.23748 12.82321,12.98135c7.7008,0.74344 14.4476,-3.86286 15.06641,-10.28865z" fill="#957EE6" id="svg_3"/>
   <path stroke="null" d="m123.2691,33.17732c0.62311,-6.42579 -5.11811,-12.23748 -12.81891,-12.98135c-7.7051,-0.74344 -14.4476,3.86286 -15.07071,10.28908c-0.61881,6.42579 5.12241,12.23748 12.82321,12.98092c7.7008,0.74344 14.4476,-3.86286 15.06641,-10.28865z" fill="#957EE6" id="svg_4"/>
   <path stroke="null" d="m170.51385,33.45278c0.61881,-6.42621 -5.12241,-12.23791 -12.82321,-12.98135c-7.7008,-0.74344 -14.4476,3.86286 -15.06641,10.28865c-0.62311,6.42579 5.11811,12.23748 12.81891,12.98092c7.7008,0.74344 14.4476,-3.86243 15.07071,-10.28822z" fill="#957EE6" id="svg_5"/>
   <path stroke="null" d="m195.72194,213.11134l-80.14505,-35.19506l0,-8.16491l80.14505,-39.96509l0,12.41926l-65.23334,30.94072l65.23334,27.37394l0,12.59115z" fill="#E5F0FC" id="svg_6"/>
   <path stroke="null" d="m265.51044,111.39374l-45.46566,121.91502l-13.83738,0l45.46566,-121.91502l13.83738,0z" fill="#E5F0FC" id="svg_7"/>
   <path stroke="null" d="m275.95294,200.52019l65.31929,-27.20205l-65.31929,-31.11261l0,-12.41926l80.14505,39.96509l0,8.16491l-80.14505,35.19506l0,-12.59115z" fill="#E5F0FC" id="svg_8"/>
</svg>